<svg width="128" height="128" viewBox="0 0 128 128" fill="none" xmlns="http://www.w3.org/2000/svg">
<g clip-path="url(#clip0_1_3)">
<path d="M10.427 44.4571H50.27C53.6216 44.4571 55.571 47.3543 55.571 50.8V90.0571H44.456V55.9429H37.958V90.0571H27.869V55.9429H21.542V90.0571H10.427V44.4571Z" fill="black"/>
<path d="M10.427 44.4571H50.27C53.6216 44.4571 55.571 47.3543 55.571 50.8V90.0571H44.456V55.9429H37.958V90.0571H27.869V55.9429H21.542V90.0571H10.427V44.4571Z" fill="#FFA216"/>
<path d="M72.158 44.4571H61.043V90.0571H72.158V44.4571Z" fill="black"/>
<path d="M72.158 44.4571H61.043V90.0571H72.158V44.4571Z" fill="#FFA216"/>
<path d="M77.459 44.4571H110.462C113.814 44.4571 115.763 47.3543 115.763 50.8V84.4C115.763 88.6686 113.985 90.0571 110.12 90.0571H77.459V61.0857H88.745V78.9143H104.648V54.7429H77.459V44.4571Z" fill="#FFA216"/>
</g>
<defs>
<clipPath id="clip0_1_3">
<rect width="128" height="128" fill="white"/>
</clipPath>
</defs>
</svg>
