<svg width="256" height="128" viewBox="0 0 256 128" fill="none" xmlns="http://www.w3.org/2000/svg">
<path d="M163.375 52.7656H166.375C166.219 54.2031 165.807 55.4896 165.141 56.625C164.474 57.7604 163.531 58.6615 162.312 59.3281C161.094 59.9844 159.573 60.3125 157.75 60.3125C156.417 60.3125 155.203 60.0625 154.109 59.5625C153.026 59.0625 152.094 58.3542 151.312 57.4375C150.531 56.5104 149.927 55.401 149.5 54.1094C149.083 52.8073 148.875 51.3594 148.875 49.7656V47.5C148.875 45.9062 149.083 44.4635 149.5 43.1719C149.927 41.8698 150.536 40.7552 151.328 39.8281C152.13 38.901 153.094 38.1875 154.219 37.6875C155.344 37.1875 156.609 36.9375 158.016 36.9375C159.734 36.9375 161.188 37.2604 162.375 37.9062C163.562 38.5521 164.484 39.4479 165.141 40.5938C165.807 41.7292 166.219 43.0469 166.375 44.5469H163.375C163.229 43.4844 162.958 42.5729 162.562 41.8125C162.167 41.0417 161.604 40.4479 160.875 40.0312C160.146 39.6146 159.193 39.4062 158.016 39.4062C157.005 39.4062 156.115 39.599 155.344 39.9844C154.583 40.3698 153.943 40.9167 153.422 41.625C152.911 42.3333 152.526 43.1823 152.266 44.1719C152.005 45.1615 151.875 46.2604 151.875 47.4688V49.7656C151.875 50.8802 151.99 51.9271 152.219 52.9062C152.458 53.8854 152.818 54.7448 153.297 55.4844C153.776 56.224 154.385 56.8073 155.125 57.2344C155.865 57.651 156.74 57.8594 157.75 57.8594C159.031 57.8594 160.052 57.6562 160.812 57.25C161.573 56.8438 162.146 56.2604 162.531 55.5C162.927 54.7396 163.208 53.8281 163.375 52.7656ZM178.422 37.25V60H175.453V37.25H178.422ZM185.734 37.25V39.7188H168.156V37.25H185.734Z" fill="white"/>
<path d="M153.656 66.25V89H150.641V66.25H153.656ZM167.391 66.25L157.938 76.8594L152.625 82.375L152.125 79.1562L156.125 74.75L163.766 66.25H167.391ZM164.484 89L156.062 77.9062L157.859 75.5156L168.078 89H164.484ZM185.188 86.5469V89H173.141V86.5469H185.188ZM173.75 66.25V89H170.734V66.25H173.75ZM183.594 76.0312V78.4844H173.141V76.0312H183.594ZM185.031 66.25V68.7188H173.141V66.25H185.031Z" fill="white"/>
<path d="M78.668 37.8125V89H75.8203V37.8125H78.668ZM103.98 61.6484V64.3203H77.2617V61.6484H103.98ZM107.531 37.8125V40.4141H77.2617V37.8125H107.531ZM126.305 39.9922L108.094 89H105.07L124.301 37.8125H126.656L126.305 39.9922ZM143.531 89L125.355 39.9922L125.004 37.8125H127.324L146.59 89H143.531ZM139.031 71.457V74.0938H112.77V71.457H139.031Z" fill="white"/>
</svg>
